<svg width="1412" height="563" viewBox="0 0 1412 563" fill="none" xmlns="http://www.w3.org/2000/svg">
<circle cx="1287" cy="61" r="10" fill="#5EABF3"/>
<path d="M1283.34 249.183L1296.95 307.544L1341.62 263.178L1283.34 249.183ZM1292.23 258.233L1325.81 266.822L1300.82 292.588L1292.23 258.233Z" fill="#E1FDE0"/>
<path d="M94.4797 296C88.8121 295.995 83.3213 294.026 78.9429 290.427C74.5645 286.828 71.5692 281.822 70.4674 276.263C69.3656 270.703 70.2255 264.934 72.9004 259.937C75.5753 254.94 79.8999 251.025 85.1375 248.86C90.375 246.694 96.2014 246.411 101.624 248.059C107.047 249.707 111.731 253.184 114.877 257.898C118.024 262.612 119.439 268.271 118.881 273.911C118.323 279.551 115.827 284.824 111.818 288.83C109.543 291.108 106.84 292.914 103.864 294.145C100.889 295.375 97.6996 296.006 94.4797 296ZM94.4797 257.098C91.1515 257.101 87.9272 258.258 85.3562 260.371C82.7852 262.485 81.0265 265.424 80.3798 268.689C79.733 271.954 80.2382 275.342 81.8092 278.276C83.3802 281.211 85.9199 283.509 88.9956 284.781C92.0714 286.053 95.4929 286.219 98.6773 285.251C101.862 284.283 104.612 282.241 106.46 279.473C108.307 276.704 109.138 273.381 108.811 270.069C108.483 266.757 107.017 263.661 104.663 261.308C103.326 259.97 101.739 258.91 99.9913 258.187C98.2438 257.465 96.3708 257.094 94.4797 257.098Z" fill="#85C6F7"/>
<circle cx="1277" cy="469" r="10" fill="#5EDC8A"/>
<circle cx="50" cy="489" r="10" fill="#5EABF3"/>
<circle cx="50" cy="61" r="10" fill="#5EDC8A"/>
</svg>
