<svg width="1440" height="380" viewBox="0 0 1440 380" fill="none" xmlns="http://www.w3.org/2000/svg">
<g clip-path="url(#clip0_103_198)">
<rect width="1440" height="380" fill="#5648CF"/>
<path d="M-1.32961 -448.615C48.5547 -333.124 88.0942 -207.357 107.426 -102.522C119.169 -38.7917 123.798 17.7736 121.174 65.5848C120.452 78.8157 119.17 91.3727 117.337 103.239C116.29 109.998 115.065 116.535 113.656 122.843C108.717 124.468 103.598 125.869 98.3091 127.032C99.3552 120.256 100.225 113.246 100.903 106.025C101.422 100.595 101.834 95.0481 102.147 89.3778C104.77 41.5666 100.142 -14.9988 88.3979 -78.729C69.0665 -183.564 29.5301 -309.325 -20.3573 -424.822L-1.32961 -448.615Z" fill="#C1B8FA"/>
<path d="M36.8629 -496.37C86.7445 -380.883 126.282 -255.121 145.612 -150.291C157.361 -86.5685 161.989 -30.0055 159.366 17.8037C157.808 46.1597 153.69 71.4447 147.057 93.4627C145.302 99.2982 143.369 104.9 141.26 110.268C137.007 112.837 132.572 115.178 127.965 117.28C129.727 111.439 131.303 105.365 132.703 99.073C136.588 81.6498 139.107 62.5123 140.246 41.7162C142.869 -6.09304 138.241 -62.6561 126.492 -126.378C107.162 -231.209 67.6243 -356.971 17.7427 -472.458L36.8629 -496.37Z" fill="#C1B8FA"/>
<path d="M75.0561 -544.136C124.938 -428.648 164.473 -302.892 183.802 -198.066C195.551 -134.347 200.178 -77.7865 197.555 -29.9794C195.17 13.4667 186.769 49.6929 172.533 78.051C170.071 82.9516 167.438 87.6133 164.628 92.0413C161.082 95.5619 157.354 98.8373 153.452 101.885C155.914 96.9842 158.191 91.8494 160.3 86.4815C170.383 60.8155 176.465 29.8409 178.436 -6.06794C181.059 -53.8751 176.431 -110.436 164.683 -174.155C145.354 -278.981 105.819 -404.737 55.937 -520.224L75.0561 -544.136Z" fill="#C1B8FA"/>
<path d="M113.159 -591.776C163.038 -476.294 202.568 -350.549 221.896 -245.729C233.644 -182.012 238.271 -125.454 235.648 -77.6494C232.754 -24.8065 220.951 17.3476 200.578 47.6567C198.388 50.9119 196.1 54.033 193.715 57.0198L174.69 80.8096C177.081 77.8174 179.369 74.6963 181.553 71.4465C201.926 41.1374 213.72 -1.01701 216.624 -53.8595C219.246 -101.664 214.619 -158.222 202.871 -221.939C183.543 -326.759 144.01 -452.51 94.1347 -567.986L113.159 -591.776Z" fill="#C1B8FA"/>
<path d="M69.4876 211.291C68.7991 212.381 68.113 213.442 67.4001 214.503C65.212 217.755 62.9264 220.874 60.5374 223.863C59.4714 225.197 58.387 226.496 57.2785 227.783C22.9931 267.468 -30.6961 281.91 -102.827 270.88C-112.965 269.325 -123.462 267.274 -134.324 264.716C-138.55 253.918 -142.179 243.767 -145.208 234.235C-137.812 235.6 -129.995 237.328 -121.73 239.391C-119.582 239.929 -117.443 240.449 -115.317 240.946C-32.0863 260.541 29.9131 250.565 69.4876 211.291Z" fill="#C1B8FA"/>
<path d="M107.601 163.564C106.904 164.67 106.195 165.753 105.473 166.83C103.288 170.089 100.999 173.202 98.6162 176.186C97.5502 177.52 96.4629 178.83 95.3544 180.117C93.1489 182.662 90.8674 185.114 88.5065 187.449L88.5007 187.455C84.9786 190.945 81.2829 194.207 77.4077 197.23C36.6133 229.078 -23.7324 235.242 -102.665 215.496C-110.981 213.419 -118.851 211.689 -126.28 210.311C-135.778 208.546 -144.574 207.359 -152.718 206.742C-154.609 198.1 -155.862 190.101 -156.464 182.7C-149.521 182.176 -141.955 182.214 -133.743 182.846C-119.182 183.939 -102.554 186.848 -83.5638 191.605C-12.1733 209.465 44.0168 206.126 84.2853 181.76C88.5106 179.199 92.5625 176.409 96.4408 173.392C100.34 170.348 104.065 167.076 107.601 163.564Z" fill="#C1B8FA"/>
<path d="M155.887 104.521L136.787 128.411C135.721 129.745 134.634 131.055 133.522 132.335C131.326 134.881 129.047 137.322 126.687 139.657C123.144 143.174 119.416 146.457 115.509 149.501C111.613 152.534 107.538 155.345 103.286 157.905C99.0605 160.467 94.6499 162.794 90.0685 164.883C51.058 182.711 -0.633293 183.687 -64.4853 167.719C-94.2741 160.261 -118.243 157.339 -137.489 158.827C-139.563 158.988 -141.583 159.202 -143.548 159.468C-148.126 160.082 -152.411 160.985 -156.396 162.189C-155.728 155.945 -154.413 150.276 -152.454 145.161C-148.037 142.302 -143.006 140.024 -137.388 138.324C-133.373 137.11 -129.053 136.191 -124.442 135.573C-104.235 132.865 -78.3751 135.562 -45.3853 143.829C10.9284 157.917 57.7845 158.816 94.8267 146.595C99.7612 144.973 104.525 143.113 109.106 141.024C113.714 138.92 118.14 136.587 122.392 134.01C126.641 131.444 130.719 128.639 134.615 125.606C138.519 122.557 142.244 119.284 145.792 115.762C148.15 113.421 150.429 110.98 152.628 108.44C153.734 107.165 154.821 105.855 155.887 104.521Z" fill="#C1B8FA"/>
<path d="M193.965 56.878L174.959 80.6463C173.893 81.9799 172.806 83.2899 171.701 84.5652C169.495 87.1105 167.22 89.5567 164.859 91.892C161.317 95.409 157.592 98.6809 153.693 101.725C149.798 104.758 145.714 107.568 141.459 110.139C137.21 112.705 132.779 115.043 128.177 117.142C123.569 119.246 118.791 121.112 113.827 122.743C108.893 124.364 103.779 125.763 98.4946 126.923C64.1459 134.456 22.4706 132.149 -26.3 119.947C-59.2944 111.686 -85.1532 108.989 -105.36 111.697C-122.138 113.946 -134.969 120.137 -143.629 130.161C-144.015 130.602 -144.392 131.061 -144.76 131.52L-125.754 107.752C-125.389 107.287 -125.009 106.834 -124.626 106.387C-115.966 96.3626 -103.135 90.1716 -86.3568 87.9229C-66.1473 85.2209 -40.2885 87.9179 -7.29714 96.1729C33.9502 106.491 70.126 109.733 101.082 105.933C106.728 105.241 112.198 104.314 117.5 103.155C122.809 101.99 127.946 100.587 132.907 98.9495C137.862 97.3177 142.646 95.447 147.248 93.3482C151.856 91.2439 156.278 88.9057 160.533 86.3344C164.785 83.7574 168.857 80.9579 172.755 77.9138C176.66 74.8643 180.381 71.5866 183.921 68.0639C186.264 65.7448 188.525 63.3206 190.706 60.7969C191.815 59.5104 192.899 58.2115 193.965 56.878Z" fill="#C1B8FA"/>
<path d="M1238.12 879.198C1262.45 836.166 1316.72 737.608 1368.21 626.157C1408.54 538.829 1439.29 460.808 1459.59 394.277C1468.91 363.737 1476.02 335.656 1480.9 310.112C1482.14 303.605 1483.25 297.267 1484.2 291.09C1485.2 284.633 1486.04 278.342 1486.72 272.241C1487.44 265.854 1487.98 259.68 1488.35 253.708C1488.74 247.416 1488.93 241.358 1488.93 235.525C1488.94 229.337 1488.72 223.401 1488.28 217.738C1487.88 212.426 1487.29 207.346 1486.5 202.493C1486.38 201.815 1486.27 201.145 1486.16 200.469L1480.16 166.244C1480.27 166.921 1480.39 167.597 1480.5 168.267C1481.28 173.091 1481.87 178.123 1482.27 183.396L1482.27 183.403C1482.71 189.081 1482.93 195.017 1482.93 201.204C1482.93 207.036 1482.74 213.101 1482.35 219.385C1481.99 225.356 1481.45 231.538 1480.73 237.909C1480.06 244.016 1479.22 250.299 1478.21 256.772C1477.26 262.973 1476.15 269.345 1474.9 275.879C1473.7 282.152 1472.37 288.576 1470.9 295.15C1466.39 315.354 1460.62 337.002 1453.59 360.044C1433.29 426.59 1402.54 504.612 1362.2 591.925C1310.91 702.983 1256.84 801.224 1232.38 844.507L1238.12 879.198Z" fill="#C1B8FA"/>
<path d="M1251.05 950.301C1275.11 907.785 1329.76 808.662 1381.58 696.452C1421.89 609.174 1452.61 531.191 1472.9 464.685C1487.09 418.202 1496.14 377.404 1500.03 342.624C1500.74 336.275 1501.28 330.129 1501.64 324.192C1502.03 317.905 1502.22 311.849 1502.23 306.01C1502.23 299.825 1502.01 293.899 1501.57 288.233C1501.17 282.931 1500.58 277.853 1499.79 273.001C1499.68 272.324 1499.57 271.656 1499.45 270.98C1498.47 265.374 1497.17 259.667 1495.55 253.849C1495.98 259.509 1496.2 265.435 1496.2 271.627C1496.2 277.45 1496 283.513 1495.61 289.795C1495.25 295.763 1494.71 301.951 1493.99 308.333C1493.31 314.398 1492.48 320.645 1491.48 327.073C1486.78 357.491 1478.57 391.96 1466.87 430.294C1446.58 496.809 1415.86 574.791 1375.55 662.077C1323.92 773.873 1269.48 872.684 1245.28 915.452L1251.05 950.301Z" fill="#C1B8FA"/>
<path d="M1263.54 1021.41C1287.34 979.406 1342.44 879.609 1394.68 766.528C1435.01 679.204 1465.76 601.185 1486.06 534.65C1505.58 470.656 1515.4 417.431 1515.4 375.833L1515.4 375.826C1515.4 369.665 1515.18 363.776 1514.75 358.136C1514.35 352.816 1513.75 347.737 1512.96 342.884C1512.85 342.213 1512.74 341.535 1512.62 340.86L1506.77 307.473C1506.82 307.807 1506.88 308.142 1506.93 308.486C1507.72 313.332 1508.32 318.41 1508.72 323.707L1508.72 323.714C1509.15 329.384 1509.37 335.33 1509.37 341.523C1509.37 347.333 1509.18 353.357 1508.8 359.615C1506.43 398.164 1496.82 445.223 1480.03 500.251C1459.73 566.795 1428.99 644.812 1388.65 732.129C1336.61 844.784 1281.72 944.269 1257.78 986.541L1263.54 1021.41Z" fill="#C1B8FA"/>
<path d="M1472.37 171.735C1471.98 166.466 1471.38 161.44 1470.61 156.621C1470.5 155.952 1470.38 155.276 1470.27 154.599C1462.5 110.229 1434.68 58.9463 1387.54 2.11444C1348.89 -44.4894 1297.35 -94.6939 1234.36 -147.106C1151.17 -216.325 1069.55 -271.262 1036.49 -292.814L1042.09 -258.866C1074.9 -237.487 1156.83 -182.388 1240.34 -112.908C1303.34 -60.503 1354.87 -10.2909 1393.53 36.3053C1434.74 85.9903 1461.19 131.447 1472.37 171.735Z" fill="#C1B8FA"/>
<path d="M1473.13 208.502C1473.52 202.229 1473.71 196.174 1473.71 190.353C1460.5 154.338 1435.93 114.559 1400.32 71.6115C1361.71 25.0504 1310.23 -25.1156 1247.31 -77.4789C1163.58 -147.158 1081.44 -202.358 1048.92 -223.538L1054.54 -189.453C1086.79 -168.464 1169.25 -113.098 1253.32 -43.1383C1316.24 9.22622 1367.72 59.3833 1406.32 105.944C1436.68 142.557 1459.01 176.864 1473.13 208.502Z" fill="#C1B8FA"/>
<path d="M1469.81 246.645C1470.81 240.187 1471.65 233.919 1472.33 227.827C1458.3 200.693 1438.55 171.736 1413.21 141.184C1374.65 94.6566 1323.21 44.5309 1260.35 -7.7881C1176.03 -77.9757 1093.33 -133.457 1061.38 -154.241L1067 -120.175C1098.67 -99.5931 1181.7 -43.9478 1266.36 26.5115C1329.21 78.8381 1380.64 128.965 1419.22 175.491C1439.79 200.311 1456.67 224.058 1469.81 246.645Z" fill="#C1B8FA"/>
<path d="M1463.42 285.759C1464.89 279.205 1466.22 272.8 1467.42 266.545C1455.91 248.594 1442.16 229.956 1426.17 210.674C1387.63 164.176 1336.24 114.088 1273.42 61.7976C1188.49 -8.91141 1105.2 -64.6841 1073.84 -85.0615L1079.43 -51.1835C1110.49 -31.0198 1194.12 24.9217 1279.39 95.9161C1342.21 148.201 1393.6 198.296 1432.14 244.793C1443.75 258.787 1454.18 272.447 1463.42 285.759Z" fill="#C1B8FA"/>
</g>
<defs>
<clipPath id="clip0_103_198">
<rect width="1440" height="380" fill="white"/>
</clipPath>
</defs>
</svg>
